<?xml version="1.0" encoding="iso-8859-1"?>
<!-- Generator: Adobe Illustrator 19.0.0, SVG Export Plug-In . SVG Version: 6.00 Build 0)  -->
<svg version="1.1" id="Capa_1" xmlns="http://www.w3.org/2000/svg" xmlns:xlink="http://www.w3.org/1999/xlink" x="0px" y="0px"
	 viewBox="0 0 469.803 469.803" style="enable-background:new 0 0 469.803 469.803;" xml:space="preserve">
<g>
	<path style="fill:#4CAF50;" d="M188.864,67.349C147.819,26.325,67.499,21.568,10.667,21.568C4.776,21.568,0,26.344,0,32.235
		c0,56.853,4.757,137.173,45.781,178.219c19.261,17.154,44.438,26.143,70.208,25.067c26.571,1.047,52.57-7.896,72.875-25.067
		C219.435,179.861,225.045,103.531,188.864,67.349z"/>
	<path style="fill:#4CAF50;" d="M459.136,63.765c-56.853,0-137.173,4.757-178.219,45.781c-36.267,36.267-30.571,112.491,0,143.083
		c20.311,17.174,46.318,26.117,72.896,25.067c25.769,1.074,50.946-7.915,70.208-25.067c41.045-41.045,45.781-121.365,45.781-178.219
		C469.791,68.528,465.019,63.765,459.136,63.765z"/>
</g>
<path style="fill:#388E3C;" d="M224,448.235c-5.891,0-10.667-4.776-10.667-10.667c0-226.24-82.965-283.008-114.197-304.363
	c-3.767-2.405-7.334-5.109-10.667-8.085c-4.093-4.237-3.975-10.99,0.262-15.083c4.134-3.993,10.687-3.993,14.821,0
	c2.409,2.037,4.961,3.898,7.637,5.568c27.733,18.965,93.056,63.659,115.648,210.261c17.459-76.645,69.213-140.995,140.331-174.485
	c5.446-2.562,11.946-0.51,14.933,4.715c2.698,4.755,1.032,10.796-3.723,13.495c-0.178,0.101-0.36,0.197-0.544,0.287l-1.728,0.811
	c-116.949,54.976-141.504,175.467-141.504,266.88C234.603,443.434,229.866,448.199,224,448.235z"/>
<g>
</g>
<g>
</g>
<g>
</g>
<g>
</g>
<g>
</g>
<g>
</g>
<g>
</g>
<g>
</g>
<g>
</g>
<g>
</g>
<g>
</g>
<g>
</g>
<g>
</g>
<g>
</g>
<g>
</g>
</svg>
